<?xml version="1.0" standalone="no"?>
<!DOCTYPE svg PUBLIC "-//W3C//DTD SVG 20010904//EN"
 "http://www.w3.org/TR/2001/REC-SVG-20010904/DTD/svg10.dtd">
<svg version="1.0" xmlns="http://www.w3.org/2000/svg"
 width="537.000000pt" height="501.000000pt" viewBox="0 0 537.000000 501.000000"
 preserveAspectRatio="xMidYMid meet">
<metadata>
Created by potrace 1.11, written by Peter Selinger 2001-2013
</metadata>
<g transform="translate(0.000000,501.000000) scale(0.100000,-0.100000)"
fill="#ffffff" stroke="none">
<path d="M2678 4816 c-13 -7 -22 -18 -20 -25 1 -7 -1 -10 -6 -7 -10 6 -88 -64
-84 -76 1 -4 -3 -8 -9 -8 -6 0 -8 -7 -5 -16 3 -8 2 -12 -4 -9 -5 3 -18 1 -27
-4 -10 -6 -14 -11 -10 -11 4 0 -10 -17 -32 -37 -22 -20 -38 -40 -35 -45 3 -4
1 -8 -4 -8 -12 0 -99 -80 -87 -80 6 -1 -3 -8 -18 -16 -15 -8 -25 -19 -22 -24
3 -5 -4 -12 -16 -15 -13 -4 -18 -12 -15 -21 3 -9 1 -12 -5 -9 -11 8 -40 -25
-33 -37 3 -4 -3 -5 -12 -1 -11 4 -15 3 -10 -5 3 -6 -3 -13 -15 -17 -13 -4 -18
-12 -15 -21 3 -8 2 -13 -2 -10 -12 7 -134 -113 -126 -125 3 -5 1 -8 -4 -7 -16
5 -373 -362 -366 -374 4 -6 3 -8 -3 -5 -5 3 -44 -30 -87 -74 -42 -43 -82 -79
-88 -79 -5 0 -8 -6 -5 -14 3 -8 -5 -18 -19 -25 -14 -6 -23 -15 -20 -20 4 -5 1
-11 -5 -13 -12 -4 -20 -88 -8 -88 3 0 4 -17 0 -37 -3 -21 -5 -94 -5 -163 2
-162 2 -162 14 -155 6 4 8 10 6 14 -3 4 6 14 19 21 13 7 22 17 19 22 -3 4 -1
8 3 8 5 0 28 18 51 40 22 22 38 40 34 40 -4 0 6 9 21 19 20 13 25 20 15 24
-10 4 -9 6 2 6 14 1 140 115 140 127 0 2 16 19 35 37 19 17 35 38 35 46 0 8 3
12 6 8 7 -6 94 80 94 94 0 5 8 9 17 9 9 0 14 3 11 6 -6 6 24 38 67 72 15 12
25 22 22 22 -2 0 19 25 49 55 30 30 54 59 54 65 0 6 4 9 9 6 5 -3 11 1 15 9 3
8 12 15 21 15 8 0 15 5 15 10 0 6 9 19 20 30 11 11 18 20 15 20 -2 0 7 11 21
25 14 14 27 25 30 25 3 0 22 18 44 40 22 22 38 40 36 40 -2 0 23 27 56 60 33
33 65 60 71 60 6 0 8 3 5 6 -6 6 136 154 147 154 4 0 29 -21 56 -47 26 -27 61
-59 77 -73 16 -14 28 -28 26 -31 -2 -3 69 -6 156 -6 103 0 157 4 153 10 -4 6
-1 7 8 1 18 -12 119 -14 119 -2 0 4 9 3 20 -4 10 -7 22 -10 25 -7 8 8 -5 39
-16 39 -5 0 -22 14 -38 31 -18 19 -35 28 -42 23 -8 -5 -9 -3 -4 5 8 14 -26 51
-46 51 -7 0 -10 3 -6 6 9 9 -21 36 -33 29 -6 -4 -7 1 -3 11 4 11 2 15 -4 11
-6 -4 -13 2 -16 13 -3 11 -13 20 -22 20 -9 0 -14 4 -11 8 3 5 -4 15 -16 23
-11 8 -26 20 -34 27 -7 6 -18 12 -24 12 -6 0 -9 4 -6 9 3 4 -26 38 -64 74 -49
48 -74 65 -87 61 -14 -5 -15 -4 -4 4 11 8 4 19 -33 56 -26 25 -52 46 -57 46
-6 0 -8 3 -6 8 2 4 -7 17 -19 28 -19 19 -26 20 -46 10z"/>
<path d="M2540 4139 c-8 -5 -10 -9 -5 -9 6 -1 -3 -8 -18 -16 -15 -8 -25 -19
-22 -24 4 -6 2 -10 -3 -10 -13 0 -91 -78 -84 -85 3 -3 0 -5 -6 -5 -11 0 -30
-18 -79 -71 -12 -13 -38 -39 -58 -58 -35 -33 -42 -57 -8 -30 9 8 14 10 11 4
-7 -11 461 -13 480 -1 6 3 13 3 15 -1 3 -5 36 -7 74 -6 114 4 168 5 173 3 18
-6 117 -4 113 3 -2 4 1 7 6 7 6 0 11 -3 11 -7 0 -5 27 -8 60 -8 33 0 60 2 60
5 0 3 14 5 30 5 17 0 30 -2 30 -5 0 -4 16 -6 35 -6 19 0 30 3 24 7 -6 3 -2 9
10 12 13 3 19 1 15 -5 -5 -7 2 -9 20 -4 20 5 26 4 20 -5 -5 -9 -2 -10 10 -6
33 13 72 19 59 10 -15 -11 192 -9 226 2 16 5 21 4 17 -4 -9 -14 -7 -14 43 4
23 8 39 11 37 6 -3 -5 3 -11 14 -14 11 -3 18 -1 14 4 -3 5 0 9 5 9 6 0 11 -4
11 -10 0 -6 9 -6 26 0 14 6 36 7 49 4 13 -3 34 -1 47 6 19 9 21 9 7 -2 -14
-11 -14 -15 -2 -26 8 -8 11 -18 6 -25 -5 -7 -8 -41 -7 -77 1 -58 4 -69 33 -99
17 -18 31 -29 31 -25 0 4 12 -10 26 -32 14 -22 39 -49 54 -59 16 -11 27 -21
25 -23 -4 -5 39 -49 45 -46 3 1 15 -11 25 -27 11 -16 28 -32 38 -35 9 -3 17
-11 17 -17 0 -7 8 -17 19 -24 17 -11 18 -6 20 100 2 126 3 445 1 613 l-1 110
-64 0 c-37 0 -61 -4 -58 -10 4 -5 1 -6 -6 -2 -20 13 -111 14 -111 2 0 -7 -3
-8 -8 -1 -10 14 -39 15 -84 5 -21 -4 -36 -5 -34 -1 4 6 -228 5 -321 -2 -24 -1
-43 0 -43 3 0 3 -186 4 -412 2 -620 -3 -628 -3 -636 2 -4 3 -14 1 -22 -5z"/>
<path d="M1059 4132 c-5 -41 -4 -52 5 -52 7 0 7 -3 1 -8 -5 -4 -10 -14 -10
-22 0 -8 5 -18 10 -22 6 -5 6 -8 -2 -8 -14 0 -13 -40 2 -40 7 0 7 -3 0 -8 -13
-9 -16 -74 -4 -66 5 3 9 0 9 -5 0 -6 -4 -11 -8 -11 -4 0 -8 -9 -9 -20 -1 -11
4 -20 10 -20 8 0 8 -3 2 -8 -6 -4 -11 -20 -11 -35 -1 -25 2 -28 22 -24 31 5
31 -1 1 -12 -20 -8 -35 -41 -18 -41 7 0 4 -98 -3 -117 -3 -7 -2 -13 3 -13 4 0
5 -22 1 -50 -4 -27 -3 -50 2 -50 4 0 4 -10 0 -22 -10 -27 -9 -39 1 -55 5 -7 4
-13 0 -13 -5 0 -9 -9 -9 -20 0 -11 3 -20 7 -20 4 0 4 -15 0 -32 -8 -37 -6 -65
4 -90 4 -10 3 -18 -1 -18 -5 0 -9 -13 -9 -30 0 -16 4 -30 8 -30 5 0 5 -6 0
-12 -11 -19 -12 -38 -2 -38 6 0 7 -5 4 -11 -12 -18 -12 -119 -1 -119 7 0 8 -3
1 -8 -5 -4 -10 -14 -10 -22 0 -8 5 -18 10 -22 6 -5 6 -8 -1 -8 -14 0 -14 -112
1 -122 6 -5 6 -8 0 -8 -6 0 -11 -27 -11 -60 -1 -38 2 -57 9 -53 6 4 7 1 1 -8
-5 -8 -9 -77 -10 -154 0 -115 3 -142 15 -152 9 -6 19 -9 23 -7 4 3 5 -3 1 -12
-3 -10 -2 -15 3 -12 5 2 19 -6 31 -19 12 -13 19 -23 16 -23 -4 0 2 -6 12 -14
11 -8 24 -12 29 -9 5 4 6 2 3 -4 -4 -5 4 -19 16 -31 12 -11 27 -27 34 -34 28
-31 62 -58 74 -58 11 0 11 -3 -1 -10 -8 -5 -10 -10 -4 -10 6 0 27 -17 47 -37
22 -22 37 -31 38 -22 4 91 2 329 -3 329 -4 0 -5 7 -2 15 11 27 10 345 -1 345
-7 0 -7 3 0 8 12 9 14 422 2 422 -5 0 -5 5 -1 12 12 18 11 118 -1 118 -7 0 -7
3 0 8 13 9 14 123 1 115 -5 -4 -6 -1 -1 6 11 19 12 171 0 171 -7 0 -7 3 0 8 6
4 10 32 10 62 0 30 -4 58 -10 62 -6 5 -6 8 1 8 6 0 10 10 9 23 -4 36 11 44 75
42 38 -1 57 2 53 8 -4 6 -1 7 8 2 7 -5 20 -9 29 -10 15 -1 182 160 174 168 -2
2 7 9 20 17 13 7 27 21 29 32 3 11 10 17 16 13 6 -3 11 -2 11 3 0 5 17 26 37
45 l37 36 -412 0 c-227 -1 -412 -4 -413 -7z"/>
<path d="M2627 3775 c-15 -8 -34 -21 -43 -30 -8 -8 -18 -15 -22 -15 -4 0 -21
-13 -39 -28 -18 -16 -48 -40 -67 -53 -20 -13 -36 -27 -36 -31 0 -5 -7 -8 -15
-8 -9 0 -20 -10 -25 -22 -5 -13 -9 -17 -9 -10 -1 8 -7 6 -19 -5 -30 -28 -64
-56 -92 -75 -14 -10 -21 -18 -16 -18 6 0 1 -7 -10 -15 -10 -8 -14 -15 -9 -15
6 0 4 -4 -4 -9 -18 -12 -42 -104 -29 -112 7 -4 6 -8 -1 -10 -12 -4 29 -100 54
-125 20 -20 75 -100 72 -105 -1 -2 0 -3 1 -2 6 2 42 -36 41 -43 0 -4 3 -10 8
-13 4 -3 16 -19 25 -36 10 -16 22 -29 28 -27 7 1 9 -1 6 -6 -7 -12 52 -92 67
-92 7 0 6 -4 -3 -10 -12 -8 -12 -10 5 -10 17 0 17 -2 5 -10 -9 -6 -10 -10 -3
-10 6 0 15 -10 19 -22 10 -31 44 -57 77 -58 16 0 26 4 23 9 -4 5 3 7 13 4 14
-3 21 2 27 19 4 12 7 29 6 36 -2 6 2 12 7 12 6 0 6 11 1 30 -5 19 -5 28 1 25
5 -4 9 -1 9 6 0 22 21 -6 23 -30 1 -11 5 -21 10 -21 4 0 6 -4 3 -8 -3 -5 0
-25 6 -45 11 -35 14 -37 52 -37 30 0 47 7 64 25 13 13 23 27 22 30 -1 4 8 15
19 24 12 10 21 23 21 30 0 6 3 11 8 11 4 0 18 17 32 38 14 20 28 39 31 42 3 3
11 15 18 28 7 12 17 20 23 16 6 -4 8 -3 5 3 -4 6 3 22 14 37 11 14 17 26 13
26 -4 0 3 8 14 19 12 10 19 21 15 24 -3 4 2 9 11 13 9 4 23 19 31 35 8 15 26
40 40 55 13 14 22 30 20 34 -3 5 0 10 6 12 20 7 9 138 -11 138 -5 0 -6 7 -3
17 4 10 2 14 -5 9 -6 -3 -13 3 -17 14 -3 11 -13 20 -21 20 -8 0 -12 4 -9 10 3
5 -6 12 -20 16 -14 3 -24 9 -21 11 7 8 -15 28 -52 47 -18 9 -32 21 -32 27 0 6
-7 8 -17 5 -10 -4 -14 -4 -11 0 8 8 -16 34 -31 34 -6 0 -11 5 -11 10 0 6 -7
13 -16 17 -9 3 -26 15 -38 27 -48 46 -77 66 -87 61 -5 -4 -8 -1 -7 6 2 7 -7
18 -19 24 -13 7 -20 15 -15 20 4 4 -3 5 -16 2 -13 -3 -20 -1 -16 5 3 5 -2 8
-12 7 -11 -2 -24 0 -30 3 -6 4 -23 1 -37 -7z"/>
<path d="M3344 3739 c-3 -5 0 -9 7 -9 7 0 10 -3 7 -6 -3 -3 11 -22 32 -42 21
-20 77 -74 124 -119 47 -46 91 -83 97 -83 7 0 9 -3 6 -6 -8 -9 87 -104 104
-104 7 0 9 -3 6 -7 -4 -3 2 -13 13 -20 11 -8 18 -19 15 -24 -4 -5 -1 -9 5 -9
6 0 38 -27 72 -60 33 -33 65 -60 71 -60 6 0 8 -2 5 -5 -6 -6 84 -99 133 -137
16 -13 29 -30 29 -38 0 -13 1 -13 10 0 8 13 10 12 10 -3 0 -10 7 -20 15 -23 8
-4 15 -10 15 -15 0 -17 60 -70 72 -63 7 4 8 3 4 -4 -4 -7 -2 -12 4 -12 6 0 9
-4 6 -8 -3 -5 6 -15 19 -22 14 -7 27 -22 31 -32 3 -11 8 -17 11 -15 7 8 178
-166 175 -178 -2 -5 0 -7 3 -3 9 9 85 -64 85 -81 0 -6 -11 -21 -25 -33 -13
-11 -22 -26 -18 -31 3 -6 2 -7 -4 -4 -5 4 -19 -2 -29 -13 -64 -66 -59 -40 -60
-290 l0 -228 38 41 c21 23 38 46 38 50 0 5 5 5 10 2 6 -3 10 -2 10 3 0 5 20
29 45 53 25 24 43 49 41 55 -3 7 4 10 17 7 18 -4 19 -3 7 6 -11 7 -11 11 -2
11 15 0 172 156 172 170 0 6 7 10 16 10 10 0 14 5 10 16 -3 8 -2 12 4 9 6 -3
10 -2 10 4 0 5 9 13 21 16 13 4 18 12 15 21 -3 9 -1 12 4 9 6 -3 10 -1 10 4 0
6 4 11 9 11 12 0 71 58 71 70 0 4 7 11 16 14 8 3 12 11 8 17 -4 7 -3 9 3 6 6
-4 17 0 24 9 11 13 4 24 -50 75 -35 34 -67 57 -73 53 -7 -5 -8 -3 -4 5 9 14
-71 94 -85 85 -5 -3 -6 3 -2 12 3 10 2 15 -3 12 -5 -2 -19 6 -31 19 -12 13
-19 23 -16 23 4 0 -2 6 -12 14 -11 8 -24 12 -29 9 -5 -4 -6 -1 -3 5 4 5 -7 22
-24 36 -17 14 -27 26 -23 26 3 0 -4 9 -17 19 -13 10 -81 74 -150 142 -70 68
-136 130 -147 138 -12 8 -19 18 -16 22 2 4 -5 10 -16 14 -11 3 -20 11 -20 16
0 17 -82 89 -94 82 -6 -3 -8 -3 -4 1 3 4 -14 28 -38 54 -24 25 -44 49 -44 53
0 5 -7 5 -17 2 -10 -4 -14 -2 -10 4 4 6 -9 24 -28 42 -19 17 -35 36 -35 41 0
5 -8 7 -17 3 -10 -3 -15 -3 -11 2 4 4 -31 45 -77 91 l-84 83 -133 -1 c-73 -1
-143 -5 -156 -9 -13 -5 -21 -5 -18 -1 2 4 -31 8 -75 9 -44 0 -82 -3 -85 -8z"/>
<path d="M3313 3250 c-50 -12 -118 -63 -118 -90 0 -5 -13 -22 -43 -55 -7 -8
-13 -18 -14 -22 -2 -21 -11 -32 -21 -26 -5 3 -7 2 -4 -3 3 -5 -19 -43 -50 -84
-66 -91 -108 -154 -102 -157 2 -1 -11 -14 -30 -28 -19 -14 -32 -25 -27 -25 4
0 0 -10 -8 -22 -22 -31 -20 -71 3 -92 16 -15 31 -17 84 -12 83 7 85 -10 6 -55
-32 -18 -56 -36 -53 -41 3 -4 -1 -8 -8 -8 -8 0 -9 -3 -3 -8 6 -4 11 -14 13
-22 2 -8 8 -16 13 -18 5 -2 9 -10 9 -18 0 -9 5 -12 10 -9 6 3 10 1 10 -5 0 -7
7 -10 15 -6 8 3 15 1 15 -5 0 -6 9 -8 23 -3 12 3 19 3 14 -2 -8 -9 122 -46
140 -39 7 2 10 -2 7 -10 -4 -9 0 -12 13 -9 10 3 51 -7 91 -21 40 -15 82 -27
93 -28 10 -1 19 -5 19 -10 0 -4 4 -5 10 -2 5 3 24 -1 42 -9 54 -24 101 -33
133 -25 32 9 107 73 97 83 -3 3 0 6 7 6 8 0 11 6 7 16 -3 8 -2 13 3 10 11 -7
33 52 25 65 -3 5 -1 9 5 9 6 0 8 7 5 15 -4 8 -1 15 6 15 6 0 10 6 7 13 -2 6 0
22 4 35 5 13 11 37 14 55 4 17 11 37 17 44 6 7 7 13 3 13 -4 0 -3 6 2 13 6 6
9 20 8 29 -2 10 1 20 6 24 5 3 7 10 4 15 -4 5 -1 9 6 9 7 0 10 3 6 6 -3 3 3
25 13 49 10 24 21 57 23 73 7 41 -24 104 -58 122 -16 8 -40 25 -53 37 -13 12
-33 25 -43 28 -11 4 -19 11 -19 16 0 5 -7 9 -15 9 -8 0 -15 4 -15 10 0 5 -15
16 -34 25 -19 9 -37 23 -40 31 -3 8 -12 14 -21 14 -8 0 -15 3 -15 8 0 7 -10
13 -66 42 -16 8 -31 17 -34 21 -3 3 -12 6 -20 6 -8 0 -31 2 -50 5 -19 3 -50 2
-67 -2z"/>
<path d="M1944 3221 c-59 -21 -87 -37 -122 -68 -13 -12 -33 -25 -43 -28 -11
-4 -19 -13 -19 -21 0 -8 -5 -12 -10 -9 -6 4 -24 -5 -40 -19 -17 -13 -39 -27
-50 -31 -11 -3 -20 -11 -20 -16 0 -6 -4 -7 -10 -4 -5 3 -10 2 -10 -4 0 -6 -16
-18 -35 -27 -20 -9 -33 -19 -30 -22 2 -3 -3 -11 -14 -18 -15 -11 -18 -25 -16
-74 0 -34 5 -65 11 -68 5 -4 10 -14 11 -22 3 -30 12 -59 23 -80 6 -11 8 -25 4
-31 -4 -8 1 -9 17 -5 24 7 24 7 -1 -8 -14 -9 -19 -15 -11 -16 8 0 11 -6 7 -16
-3 -8 -2 -12 4 -9 6 3 10 -4 11 -17 0 -13 3 -32 5 -43 2 -11 5 -28 6 -37 1
-10 6 -18 11 -18 4 0 5 -4 2 -10 -3 -5 0 -10 7 -10 9 0 9 -3 -2 -10 -12 -8
-12 -10 5 -10 17 0 17 -2 5 -10 -9 -6 -11 -13 -5 -17 6 -5 10 -14 11 -20 1 -7
2 -20 3 -28 0 -9 12 -27 26 -41 13 -13 26 -28 27 -32 1 -4 14 -17 29 -30 34
-28 84 -39 104 -22 8 6 18 9 24 6 5 -3 11 -1 13 4 2 6 31 15 65 20 33 4 70 13
82 20 12 6 27 8 33 4 7 -5 8 -3 3 6 -6 10 -3 12 13 8 12 -4 20 -2 16 3 -3 5 6
9 20 9 35 0 31 -1 76 15 22 8 44 15 48 16 4 1 18 6 32 12 14 5 40 10 58 11 22
1 31 5 27 14 -3 7 0 10 6 7 21 -14 57 6 73 40 20 42 11 67 -34 87 -16 7 -30
17 -30 21 0 5 -5 5 -11 1 -11 -6 -29 12 -29 29 0 5 29 5 64 2 49 -6 70 -4 85
7 12 8 18 18 14 21 -3 4 -1 7 5 7 19 0 8 64 -15 88 -13 13 -23 27 -23 33 0 6
-4 8 -8 5 -4 -3 -16 11 -26 29 -11 19 -23 32 -27 29 -5 -3 -9 4 -9 15 0 12 -5
21 -11 21 -5 0 -7 5 -4 10 3 6 2 10 -3 10 -5 0 -14 12 -20 26 -7 15 -17 22
-24 18 -7 -4 -8 -3 -4 4 4 7 1 12 -6 12 -10 0 -10 2 1 9 7 5 9 10 5 12 -14 6
-54 67 -54 81 0 7 -9 19 -21 26 -12 7 -19 16 -16 19 6 5 -2 17 -41 58 -13 14
-20 25 -16 25 4 0 -6 11 -22 25 -16 14 -35 23 -42 20 -8 -3 -10 0 -6 7 5 7 0
9 -14 6 -12 -4 -20 -2 -16 3 7 12 -13 11 -38 -2 -15 -8 -19 -8 -14 0 10 15
-10 13 -70 -8z"/>
<path d="M935 3036 c-27 -24 -45 -49 -41 -55 4 -7 1 -9 -8 -5 -14 6 -43 -32
-38 -50 2 -5 -3 -6 -10 -4 -7 3 -33 -15 -58 -40 -39 -38 -42 -44 -20 -38 17 5
14 1 -10 -12 -19 -10 -34 -24 -32 -31 1 -7 -2 -9 -9 -6 -12 8 -49 -27 -49 -46
0 -7 -3 -10 -6 -6 -10 9 -36 -21 -29 -33 4 -6 3 -9 -2 -8 -5 2 -21 -7 -37 -19
-16 -13 -25 -23 -20 -23 5 0 -2 -7 -14 -16 -12 -8 -20 -20 -17 -25 4 -5 -2 -6
-12 -2 -10 3 -15 3 -11 -1 3 -4 -18 -31 -48 -60 -29 -29 -51 -56 -47 -60 3 -3
-1 -6 -10 -6 -24 0 -21 -13 8 -38 14 -12 25 -26 25 -30 0 -5 11 -15 25 -22 14
-7 25 -19 25 -27 0 -7 4 -13 9 -13 5 0 23 -14 40 -31 18 -17 36 -27 42 -23 8
4 9 3 5 -5 -8 -12 43 -73 55 -65 4 2 10 -5 14 -16 4 -11 22 -31 41 -44 18 -12
31 -25 28 -28 -3 -4 4 -9 15 -13 12 -3 21 -13 21 -21 0 -8 5 -12 10 -9 6 3 10
3 10 -2 0 -4 9 -19 20 -33 17 -21 19 -22 15 -5 -5 16 -3 16 6 -2 7 -13 18 -23
26 -23 8 0 12 -4 9 -9 -8 -13 21 -34 35 -25 8 5 9 3 5 -5 -9 -13 248 -274 258
-263 3 3 6 0 6 -7 0 -13 97 -113 144 -148 16 -13 27 -23 23 -23 -4 0 1 -9 10
-20 10 -11 23 -20 30 -20 6 0 15 -9 18 -21 4 -12 12 -18 21 -15 7 3 13 0 11
-6 -1 -6 9 -17 23 -25 14 -7 21 -13 17 -13 -8 0 -2 -7 30 -42 22 -24 42 -38
53 -38 6 0 8 -4 5 -10 -3 -5 -2 -10 4 -10 5 0 13 -9 16 -20 6 -18 15 -21 58
-20 58 1 312 2 395 1 47 0 52 2 41 15 -7 8 -19 12 -27 9 -12 -4 -13 -3 -2 10
7 8 8 15 2 15 -15 0 -82 65 -82 79 0 8 -6 11 -17 7 -10 -4 -14 -4 -11 0 11 11
-60 77 -73 68 -8 -5 -9 -3 -4 5 7 13 -26 51 -45 51 -5 0 -10 4 -10 10 0 13
-48 60 -62 60 -6 0 -8 3 -5 6 9 9 -44 54 -55 48 -4 -3 -5 3 -1 12 4 10 2 15
-3 11 -5 -3 -19 8 -29 24 -11 16 -23 29 -27 29 -12 0 -67 58 -61 64 4 3 0 6
-9 6 -8 0 -21 11 -28 25 -7 14 -17 25 -22 25 -12 0 -42 30 -31 31 4 0 -2 4
-14 9 -13 5 -23 17 -23 26 0 10 -5 14 -16 10 -8 -3 -12 -2 -9 4 3 6 2 10 -4
10 -5 0 -12 9 -16 19 -3 11 -15 23 -26 26 -10 4 -19 13 -19 20 0 9 -6 12 -17
8 -10 -3 -15 -3 -11 2 11 11 -20 37 -34 29 -9 -6 -9 -3 1 9 9 11 10 17 2 17
-6 0 -39 27 -73 60 -33 33 -65 60 -70 60 -5 0 -7 4 -4 8 3 5 -6 15 -19 22 -14
7 -25 16 -25 20 0 4 -14 21 -30 39 -27 28 -41 35 -62 32 -4 0 -5 6 -2 14 4 8
-1 17 -10 21 -9 3 -13 11 -9 17 4 6 -2 8 -15 5 -12 -4 -20 -2 -17 3 3 4 -12
26 -35 49 -22 22 -40 44 -40 50 0 5 18 29 40 52 22 24 40 47 40 51 0 5 4 6 9
3 4 -3 15 11 24 32 21 48 19 238 -2 251 -11 7 -11 9 0 13 10 3 14 27 14 91 0
48 0 87 -1 87 -1 0 -24 -20 -49 -44z"/>
<path d="M4007 2951 c-3 -11 -2 -19 3 -16 4 3 11 -2 14 -11 3 -8 2 -13 -3 -10
-5 3 -11 -3 -14 -14 -3 -11 0 -20 6 -20 8 0 8 -3 2 -8 -5 -4 -9 -18 -8 -32 0
-14 1 -33 2 -43 1 -12 6 -16 14 -11 6 4 5 -1 -4 -12 -13 -15 -16 -37 -13 -101
1 -45 5 -87 8 -92 3 -5 2 -11 -4 -13 -7 -2 -7 -14 -1 -36 5 -18 6 -30 2 -28
-10 7 -8 -85 2 -101 5 -7 5 -13 0 -13 -4 0 -7 -46 -6 -102 1 -127 1 -121 16
-112 6 4 3 -3 -8 -15 -11 -13 -20 -24 -19 -25 18 -32 22 -45 16 -51 -11 -10
-8 -59 3 -67 6 -5 5 -8 -2 -8 -9 0 -10 -7 -3 -24 6 -17 5 -26 -2 -28 -8 -3 -8
-10 1 -25 6 -13 7 -24 2 -28 -6 -3 -6 -17 -1 -35 5 -17 5 -32 0 -35 -5 -3 -5
-16 0 -30 5 -14 6 -25 2 -25 -10 0 -8 -272 2 -289 7 -10 6 -12 -4 -6 -10 6
-11 2 -6 -18 4 -16 1 -27 -7 -30 -8 -4 -8 -6 0 -6 6 -1 9 -10 6 -20 -3 -10 1
-29 7 -41 8 -15 8 -20 1 -16 -13 9 -14 -13 -2 -33 6 -9 5 -21 -2 -33 -9 -14
-9 -23 0 -37 15 -24 -1 -40 -35 -35 -16 3 -21 0 -16 -8 5 -7 3 -8 -7 -3 -21
13 -99 14 -99 1 0 -8 -2 -8 -8 0 -4 6 -15 11 -25 11 -22 0 -80 -55 -72 -68 4
-5 -2 -6 -11 -2 -10 3 -15 2 -12 -3 2 -5 -6 -19 -19 -31 -13 -12 -23 -19 -23
-16 0 4 -6 -2 -14 -12 -8 -11 -12 -23 -10 -27 3 -4 -3 -5 -12 -1 -11 4 -15 3
-10 -5 3 -6 -3 -13 -14 -17 -11 -3 -20 -13 -20 -21 0 -8 -4 -13 -9 -10 -9 6
-26 -22 -22 -37 1 -5 -3 -6 -9 -2 -6 3 -26 -10 -45 -30 l-35 -35 430 0 430 1
1 37 c1 20 1 40 0 44 -2 17 -3 893 -1 928 1 14 2 48 1 75 0 28 0 84 0 125 1
41 0 89 -1 105 -1 17 -2 35 -2 40 6 143 1 390 -8 393 -5 2 -8 8 -4 13 3 5 -1
9 -10 9 -8 0 -16 3 -18 8 -1 4 -16 17 -32 30 -16 12 -25 22 -21 22 4 0 -26 34
-68 75 -41 41 -81 75 -88 75 -11 0 -10 3 1 10 13 8 13 10 -2 10 -9 0 -20 9
-23 20 -3 11 -11 20 -17 20 -6 0 -16 7 -23 16 -11 15 -12 15 -18 -5z"/>
<path d="M2646 2699 c-17 -4 -32 -7 -34 -4 -2 2 -9 -1 -16 -6 -6 -6 -26 -19
-44 -30 -20 -12 -30 -24 -26 -31 5 -8 2 -9 -10 -5 -10 4 -15 3 -11 -3 3 -6 2
-10 -3 -10 -5 0 -12 -9 -15 -20 -3 -11 0 -20 6 -20 8 0 7 -4 -2 -9 -15 -10
-19 -89 -5 -100 6 -3 9 -13 9 -21 0 -8 7 -22 17 -31 10 -9 18 -20 18 -25 0
-20 101 -72 136 -70 19 1 35 -2 36 -6 4 -10 79 13 96 29 7 7 20 13 27 13 15 0
41 39 37 53 -1 5 2 6 7 3 24 -15 36 108 16 159 -19 47 -70 99 -91 91 -15 -6
-15 -4 -3 11 12 15 12 16 -3 10 -9 -3 -18 -1 -20 5 -2 6 -20 12 -40 12 -20 1
-34 4 -31 9 5 9 -13 8 -51 -4z"/>
<path d="M2914 2396 c-17 -8 -34 -21 -38 -31 -15 -40 1 -98 32 -118 10 -7 10
-12 2 -22 -9 -11 -16 -12 -30 -3 -10 7 -16 16 -14 20 3 4 -1 8 -9 8 -8 0 -20
7 -28 16 -7 9 -21 13 -33 10 -21 -5 -21 -5 -1 10 19 15 18 15 -10 8 -29 -6
-58 -24 -40 -24 5 0 0 -6 -11 -14 -18 -14 -19 -29 -19 -248 -1 -128 2 -248 6
-265 4 -18 3 -33 -1 -33 -4 0 -6 -23 -3 -51 2 -39 10 -60 31 -84 16 -17 34
-29 41 -27 8 3 11 0 7 -6 -3 -6 8 -15 28 -22 48 -15 224 -22 248 -9 16 9 19 8
13 -2 -6 -9 0 -11 24 -6 18 4 30 3 27 -1 -7 -12 267 -6 305 7 40 13 57 40 55
87 -1 22 3 30 12 27 7 -3 12 -2 11 3 -1 5 0 11 1 14 2 7 7 29 15 70 3 19 11
40 16 47 6 7 8 17 4 23 -3 5 -1 10 4 10 6 0 10 3 10 8 -1 4 0 9 1 12 1 3 3 12
5 20 2 8 11 42 20 75 22 78 25 121 13 170 -5 22 -10 46 -10 53 -1 6 -6 12 -11
12 -6 0 -8 3 -4 6 11 11 -29 46 -79 69 -59 28 -197 68 -236 69 -14 1 -24 4
-22 7 2 3 -21 12 -51 19 -30 7 -55 18 -55 23 0 6 -3 7 -7 4 -3 -4 -12 -2 -19
4 -8 6 -21 9 -29 5 -9 -3 -14 -2 -10 3 3 5 -8 12 -25 16 -16 4 -30 11 -30 15
0 5 -7 7 -15 4 -8 -4 -15 -1 -15 6 0 7 -8 10 -20 7 -11 -3 -18 -1 -14 4 7 12
-5 11 -42 -5z"/>
<path d="M2405 2371 c-27 -10 -63 -25 -80 -34 -16 -9 -40 -17 -52 -17 -13 0
-23 -4 -23 -9 0 -5 -6 -9 -12 -8 -40 1 -59 -4 -52 -15 5 -8 2 -9 -9 -5 -10 3
-17 2 -17 -3 0 -6 -9 -10 -20 -10 -11 0 -20 -4 -20 -10 0 -5 -7 -6 -17 -3 -11
4 -14 3 -9 -5 4 -8 2 -10 -7 -6 -21 8 -184 -45 -228 -74 -52 -34 -73 -81 -76
-167 -1 -38 2 -74 7 -80 4 -5 15 -37 24 -70 9 -33 18 -64 20 -70 1 -5 11 -38
21 -72 11 -39 22 -60 29 -56 7 4 6 1 -1 -8 -9 -11 -8 -23 7 -56 10 -23 16 -44
12 -47 -3 -3 1 -6 9 -6 11 0 11 -2 -1 -10 -8 -5 -10 -10 -4 -10 5 0 20 -9 32
-21 12 -11 27 -17 32 -14 6 3 10 1 10 -5 0 -7 29 -10 85 -9 47 1 85 4 85 8 0
3 32 4 71 3 52 -3 74 0 80 10 5 8 9 8 9 2 0 -14 112 -13 122 1 5 6 8 5 8 -3 0
-7 5 -10 11 -6 6 3 33 8 60 10 49 3 112 31 103 45 -2 4 6 5 18 2 19 -4 20 -3
8 6 -13 9 -13 11 1 11 17 0 43 46 34 60 -3 5 1 11 7 13 10 4 10 6 1 6 -9 1
-10 8 -3 26 5 14 6 25 2 25 -4 0 -7 43 -7 95 0 56 4 95 10 95 7 0 7 3 0 8 -5
4 -10 14 -10 22 0 8 5 18 10 22 6 5 6 8 -1 8 -7 0 -10 16 -8 40 1 26 -2 40 -9
40 -9 0 -9 2 -1 8 6 4 11 24 10 45 -2 21 2 37 8 37 7 0 7 3 0 8 -14 8 -13 54
1 64 6 5 5 8 -3 8 -9 0 -11 7 -7 20 4 12 2 20 -5 20 -6 0 -9 4 -6 9 7 11 -11
27 -47 40 -18 7 -26 7 -22 1 3 -6 -1 -10 -9 -10 -9 0 -16 -4 -16 -9 0 -5 -10
-11 -22 -14 -12 -4 -19 -9 -15 -13 8 -8 -22 -33 -40 -34 -7 0 -13 9 -13 20 0
11 5 20 11 20 5 0 8 4 4 9 -3 5 -1 12 5 16 6 4 7 11 4 17 -5 7 -2 9 7 6 24 -9
17 44 -10 75 -28 31 -30 31 -96 8z"/>
<path d="M3920 1901 c0 -6 -6 -11 -13 -11 -18 0 -68 -60 -60 -73 3 -6 1 -7 -5
-3 -6 3 -29 -12 -52 -34 -22 -22 -38 -40 -34 -40 4 0 -12 -16 -35 -36 -22 -20
-38 -40 -35 -45 3 -5 -3 -6 -13 -2 -10 3 -15 3 -12 0 3 -4 -84 -97 -193 -208
-109 -110 -196 -205 -193 -210 4 -5 -1 -6 -9 -3 -14 6 -43 -32 -38 -50 2 -5
-5 -5 -15 -2 -9 4 -14 4 -11 1 4 -4 -11 -23 -32 -43 -22 -19 -37 -39 -34 -44
3 -4 -3 -5 -12 -1 -12 4 -15 3 -10 -5 4 -7 2 -12 -3 -12 -6 0 -11 -7 -11 -15
0 -8 -4 -15 -9 -15 -11 0 -87 -72 -84 -81 1 -4 -11 -12 -27 -19 -17 -7 -30
-16 -30 -20 0 -5 -54 -63 -120 -130 -66 -67 -120 -116 -120 -108 0 10 -3 9
-10 -2 -5 -8 -10 -10 -10 -4 0 19 -58 76 -70 69 -6 -4 -7 1 -3 11 4 12 3 15
-5 10 -7 -4 -12 -3 -12 3 0 6 -11 20 -25 33 -24 23 -28 23 -252 21 -251 -2
-264 -2 -245 -10 6 -2 10 -9 6 -14 -3 -5 1 -9 9 -9 7 0 23 -14 36 -30 12 -17
27 -28 33 -24 7 4 8 3 4 -4 -4 -6 3 -19 15 -29 11 -10 42 -39 67 -66 35 -36
50 -46 66 -41 21 6 21 6 2 -9 -19 -14 -19 -15 3 -22 12 -4 20 -9 17 -12 -11
-12 55 -75 72 -68 7 2 10 0 7 -5 -3 -6 -2 -10 4 -10 6 0 8 -7 5 -15 -4 -9 3
-16 20 -21 14 -3 23 -10 20 -15 -3 -5 -1 -9 5 -9 5 0 13 -9 16 -20 3 -11 14
-20 22 -20 9 0 14 -3 11 -6 -4 -3 18 -30 47 -59 29 -30 50 -56 48 -59 -3 -3 7
-8 21 -12 15 -3 25 -9 22 -11 -6 -6 19 -33 29 -33 4 0 5 7 2 14 -4 11 -1 13
10 9 10 -4 14 -2 9 5 -3 6 3 13 14 17 11 3 20 14 20 22 0 9 3 14 6 10 11 -10
36 22 28 35 -5 8 -1 8 12 -2 10 -8 16 -11 12 -6 -3 4 7 20 24 36 18 17 27 34
22 41 -4 7 -3 9 4 5 11 -7 102 75 102 93 0 6 4 11 8 11 15 0 52 37 45 44 -3 3
-1 6 5 6 6 0 26 16 44 35 71 77 100 105 111 105 6 0 8 3 5 6 -8 7 111 124 125
124 6 0 8 3 4 6 -6 7 15 34 23 29 3 -2 11 3 18 11 7 8 10 14 7 14 -3 0 28 34
70 75 43 44 73 81 69 87 -4 7 -3 8 5 4 7 -4 44 26 96 78 46 47 81 86 78 86 -3
0 7 10 23 22 16 12 35 31 42 41 8 10 25 29 38 42 13 13 24 29 24 35 0 5 7 10
15 10 8 0 15 5 15 10 0 6 8 10 17 10 9 0 14 3 11 6 -4 3 11 22 31 42 37 36 69
102 51 102 -6 0 -6 10 0 25 7 18 6 25 -3 25 -8 0 -8 3 -2 8 6 4 11 22 12 40 1
27 -3 32 -16 28 -14 -5 -14 -5 -1 6 18 16 22 48 6 48 -7 0 -7 3 -1 8 6 4 10
14 10 22 0 8 -4 18 -10 22 -6 5 -5 8 3 8 15 0 12 31 -3 42 -6 5 -5 8 3 8 6 0
12 5 12 11 0 6 -8 8 -17 5 -17 -6 -17 -5 -1 7 12 10 14 17 6 31 -7 13 -7 21 2
26 9 5 9 9 1 14 -6 4 -11 2 -11 -3z"/>
<path d="M1052 1708 c3 -17 1 -28 -6 -28 -7 0 -8 -3 -1 -8 6 -4 10 -24 9 -44
-1 -23 3 -38 10 -38 7 0 7 -3 1 -8 -13 -9 -15 -123 -2 -115 6 4 7 1 1 -8 -12
-21 -12 -219 1 -219 7 0 7 -3 0 -8 -14 -9 -14 -72 0 -72 6 0 7 -3 0 -8 -5 -4
-10 -14 -10 -22 0 -8 5 -18 10 -22 6 -5 5 -8 -4 -8 -7 0 -11 -6 -7 -15 3 -8 0
-15 -7 -15 -8 0 -8 -3 -2 -8 6 -4 10 -35 9 -69 -1 -40 3 -63 10 -63 6 0 4 -5
-4 -10 -13 -9 -13 -11 0 -19 8 -5 18 -7 22 -5 9 6 75 6 148 1 25 -2 57 0 73 4
15 4 25 5 23 1 -2 -4 27 -7 64 -7 37 0 67 2 65 5 -2 3 10 5 25 5 15 0 27 -2
25 -5 -6 -9 339 -5 354 4 10 7 12 5 6 -4 -6 -9 0 -10 25 -5 23 5 30 4 26 -4
-5 -8 0 -8 17 -2 14 5 49 9 78 7 30 -1 66 1 82 5 15 4 25 5 23 1 -6 -10 288
-7 304 3 8 5 11 4 7 -2 -5 -7 12 -9 49 -7 35 3 53 1 49 -6 -4 -6 2 -7 17 -1
13 5 83 9 156 10 l132 0 30 31 c16 16 27 30 25 30 -2 0 11 15 30 33 150 144
192 187 182 188 -7 0 -2 4 11 9 12 5 22 14 22 20 0 7 -7 7 -21 -1 -12 -6 -24
-7 -28 -3 -7 11 -121 12 -114 2 2 -5 -1 -8 -6 -8 -6 0 -11 3 -11 8 0 4 -24 7
-54 7 -30 0 -53 -2 -51 -5 2 -3 -14 -5 -36 -5 -21 0 -39 2 -39 5 0 3 -13 5
-30 5 -16 0 -30 -2 -30 -5 0 -3 -13 -5 -30 -5 -16 0 -30 3 -30 7 0 4 -13 3
-30 -2 -16 -5 -30 -6 -30 -2 0 4 -13 7 -29 7 -16 0 -27 -3 -26 -6 2 -3 -12 -5
-30 -5 -19 1 -35 3 -35 6 0 6 -100 2 -117 -4 -7 -3 -13 -2 -13 2 0 7 -21 7
-127 -1 -29 -2 -53 -1 -53 4 0 5 -12 4 -26 -1 -14 -6 -36 -7 -49 -4 -13 3 -33
0 -45 -6 -14 -8 -20 -8 -16 -1 5 7 -13 9 -54 7 -33 -2 -60 0 -60 5 0 5 -12 4
-26 -1 -34 -13 -53 -13 -34 1 11 8 9 9 -10 3 -14 -4 -43 -8 -66 -9 -22 -1 -47
-5 -54 -10 -8 -5 -11 -4 -7 2 7 12 -153 10 -174 -2 -12 -8 -12 -6 0 8 13 16
12 17 -14 7 -16 -6 -31 -7 -34 -3 -8 10 -61 11 -55 1 3 -4 0 -8 -5 -8 -6 0
-11 4 -11 10 0 5 -6 7 -13 4 -11 -4 -14 11 -13 71 1 41 -3 75 -8 75 -5 0 -3 7
4 15 10 12 7 19 -16 40 -15 14 -31 25 -36 25 -5 0 -6 5 -3 10 3 6 -1 10 -10
10 -9 0 -14 3 -12 8 3 4 -1 13 -9 20 -8 7 -14 10 -14 6 0 -4 -10 6 -22 21 -29
37 -68 76 -68 67 0 -3 -7 4 -16 16 -8 12 -23 22 -32 23 -10 0 -12 3 -5 6 10 3
10 8 -1 19 -8 8 -18 14 -21 14 -4 0 -23 17 -42 38 -35 37 -35 37 -31 10z"/>
</g>
</svg>
